<?xml version="1.0" standalone="no"?>
<!DOCTYPE svg PUBLIC "-//W3C//DTD SVG 20010904//EN"
 "http://www.w3.org/TR/2001/REC-SVG-20010904/DTD/svg10.dtd">
<svg version="1.0" xmlns="http://www.w3.org/2000/svg"
 width="1000.000000pt" height="1000.000000pt" viewBox="0 0 1000.000000 1000.000000"
 preserveAspectRatio="xMidYMid meet">

<g transform="translate(0.000000,1000.000000) scale(0.100000,-0.100000)"
fill="#000000" stroke="none">
<path d="M1670 6351 l0 -160 118 -3 117 -3 3 -47 c3 -47 3 -48 -44 -75 -105
-63 -118 -92 -39 -89 46 2 76 16 34 16 -19 0 -21 2 -9 10 20 13 63 13 55 0 -3
-6 6 -15 20 -20 l27 -10 -24 -21 c-12 -11 -18 -18 -13 -15 6 2 16 -4 23 -14
10 -17 9 -20 -14 -26 -16 -4 -23 -12 -20 -20 3 -9 -2 -14 -14 -14 -25 0 -90
-67 -91 -94 -1 -17 -2 -18 -6 -3 -6 24 -59 23 -73 -2 -17 -33 -12 -44 16 -37
21 6 25 4 21 -8 -4 -9 -2 -16 3 -16 6 0 10 -9 10 -19 0 -26 17 -36 35 -21 18
15 74 4 82 -16 3 -8 12 -14 19 -14 8 0 20 -11 26 -25 6 -14 19 -25 28 -25 10
0 23 -6 29 -14 15 -18 -3 -88 -31 -125 -10 -13 -18 -30 -18 -37 0 -8 -4 -14
-10 -14 -5 0 -10 -6 -10 -14 0 -8 -6 -16 -14 -19 -7 -3 -13 -18 -12 -33 1 -22
8 -29 41 -41 53 -18 187 -17 249 2 104 32 200 116 250 217 29 59 52 181 42
222 -8 32 -35 43 -29 12 4 -17 -3 -28 -29 -44 -22 -15 -27 -22 -15 -22 24 0
21 -19 -10 -64 -17 -26 -26 -52 -25 -74 1 -21 -6 -44 -18 -60 -11 -13 -20 -30
-20 -37 0 -16 -43 -55 -62 -55 -9 0 -19 12 -23 28 -8 29 -25 152 -26 189 -1
25 -22 35 -61 28 -58 -11 -92 93 -46 142 14 15 21 34 20 57 -1 29 3 35 21 38
l22 3 -22 22 c-19 19 -20 23 -7 34 12 10 16 8 21 -10 5 -18 8 -19 21 -9 8 7
25 11 37 10 27 -4 42 15 26 31 -8 8 -11 6 -11 -6 0 -18 -17 -22 -38 -8 -11 6
-8 14 12 34 14 14 26 22 26 17 0 -4 9 -6 19 -3 10 3 27 1 37 -5 11 -5 30 -6
43 -3 24 6 23 7 -14 39 -20 19 -53 41 -71 50 -33 15 -34 18 -34 74 l0 58 168
0 c186 0 269 -13 353 -55 171 -86 260 -240 261 -450 2 -242 -121 -413 -342
-479 -42 -13 -95 -17 -222 -16 -161 0 -168 -1 -168 -20 0 -13 7 -20 20 -20 13
0 20 -7 20 -20 0 -13 -7 -20 -20 -20 -27 0 -27 -36 1 -43 13 -4 20 -12 17 -24
-5 -26 -38 -29 -45 -5 -3 11 -13 22 -24 25 -26 7 -26 47 1 47 13 0 20 7 20 20
0 13 -7 20 -20 20 -13 0 -20 7 -20 20 0 16 -7 20 -35 20 -28 0 -35 -4 -35 -20
0 -15 -7 -20 -25 -20 -18 0 -25 5 -25 20 0 19 -7 20 -95 20 l-95 0 0 -40 c0
-33 -3 -40 -20 -40 -13 0 -20 -7 -20 -20 0 -13 7 -20 20 -20 14 0 20 -7 20
-21 0 -12 -8 -23 -20 -26 -11 -3 -20 -11 -20 -18 0 -7 9 -15 20 -18 31 -8 27
-47 -5 -47 -18 0 -25 5 -25 20 0 16 -7 20 -35 20 -28 0 -35 -4 -35 -20 0 -13
7 -20 20 -20 13 0 20 -7 20 -20 0 -13 -7 -20 -20 -20 -13 0 -20 -7 -20 -20 0
-16 7 -20 35 -20 28 0 35 4 35 20 0 15 7 20 25 20 18 0 25 -5 25 -20 0 -11 7
-20 15 -20 8 0 15 9 15 20 0 15 7 20 25 20 18 0 25 -5 25 -20 0 -19 7 -20 135
-20 128 0 135 1 135 20 0 15 7 20 25 20 18 0 25 -5 25 -20 0 -19 7 -20 143
-20 216 0 356 31 506 111 156 84 261 190 336 344 62 124 77 187 82 345 4 114
2 149 -16 225 -55 232 -207 422 -425 529 -180 90 -180 90 -758 94 l-508 3 0
-160z m421 -371 c-13 -11 -31 -20 -42 -20 -10 0 -21 -4 -24 -10 -3 -5 -15 -10
-27 -10 -16 0 -19 4 -14 24 4 18 1 26 -11 29 -10 3 18 5 62 6 l80 0 -24 -19z
m-61 -850 c0 -13 -7 -20 -20 -20 -13 0 -20 -7 -20 -19 0 -10 9 -21 20 -24 11
-3 20 -12 20 -21 0 -23 27 -20 33 4 7 28 47 27 47 -1 0 -12 -8 -23 -19 -26
-11 -3 -21 -13 -24 -24 -7 -26 -47 -26 -47 0 0 10 -9 21 -20 24 -11 3 -20 12
-20 20 0 8 -9 17 -20 20 -12 3 -20 14 -20 26 0 14 6 21 20 21 13 0 20 7 20 20
0 15 7 20 25 20 18 0 25 -5 25 -20z m158 -42 c-2 -15 -10 -23 -23 -23 -13 0
-21 8 -23 23 -3 18 1 22 23 22 22 0 26 -4 23 -22z m-3 -83 c0 -13 -8 -21 -22
-23 -17 -3 -23 2 -23 16 0 10 3 22 7 26 13 13 38 1 38 -19z m-200 -40 c0 -13
-8 -21 -22 -23 -17 -3 -23 2 -23 16 0 10 3 22 7 26 13 13 38 1 38 -19z m283
-3 c3 -18 -1 -22 -22 -22 -19 0 -26 5 -26 18 0 39 43 43 48 4z m-198 -42 c0
-15 -7 -20 -25 -20 -18 0 -25 5 -25 20 0 15 7 20 25 20 18 0 25 -5 25 -20z
m80 0 c0 -15 -7 -20 -25 -20 -18 0 -25 5 -25 20 0 15 7 20 25 20 18 0 25 -5
25 -20z"/>
<path d="M3460 5421 l0 -561 155 0 155 0 0 200 c0 110 3 200 8 200 24 0 59
-44 121 -148 78 -133 129 -190 198 -226 66 -33 171 -48 256 -36 70 10 163 48
161 65 -1 6 -16 60 -34 122 l-32 111 -34 -14 c-42 -18 -121 -18 -154 0 -14 8
-46 40 -71 72 -25 33 -58 65 -73 73 l-28 13 70 34 c134 65 188 158 180 313 -8
163 -93 263 -267 314 -56 17 -107 20 -338 24 l-273 5 0 -561z m512 288 c47
-24 58 -41 58 -86 0 -86 -36 -111 -171 -120 l-89 -6 0 118 0 118 89 -6 c50 -3
100 -11 113 -18z"/>
<path d="M4720 5420 l0 -560 399 0 c220 0 402 4 405 8 3 5 8 65 12 135 l7 127
-257 0 -256 0 0 80 0 80 230 0 230 0 0 135 0 135 -230 0 -230 0 0 75 0 75 250
0 250 0 0 135 0 135 -405 0 -405 0 0 -560z"/>
<path d="M6167 5973 c-3 -5 -71 -158 -152 -342 -81 -184 -189 -431 -241 -548
-52 -117 -94 -215 -94 -218 0 -3 70 -4 156 -3 l155 3 41 98 41 97 219 -2 220
-3 38 -95 38 -95 156 -3 c86 -1 156 0 156 2 0 4 -108 262 -212 506 -25 58 -94
219 -153 358 l-107 252 -128 0 c-71 0 -131 -3 -133 -7z m187 -516 c25 -64 46
-122 46 -127 0 -6 -44 -10 -111 -10 -85 0 -110 3 -106 13 69 166 111 257 117
250 4 -4 28 -61 54 -126z"/>
<path d="M7156 5858 c-8 -152 -26 -780 -26 -905 l0 -93 138 0 139 0 6 128 c4
70 7 171 7 225 0 53 3 97 8 97 4 0 59 -102 122 -225 l115 -225 110 2 109 3
116 227 c63 125 118 228 123 228 4 0 7 -87 7 -192 0 -106 3 -210 6 -230 l7
-38 143 0 c78 0 144 3 146 8 5 10 -10 838 -18 990 l-6 123 -126 -3 -125 -3
-181 -357 c-100 -197 -185 -356 -189 -355 -6 2 -224 418 -360 687 -12 24 -15
25 -139 28 l-126 3 -6 -123z"/>
<path d="M1857 5955 c-49 -17 -50 -18 -28 -37 17 -14 20 -13 48 18 34 38 33
39 -20 19z"/>
<path d="M1634 5935 c9 -14 13 -25 9 -25 -5 0 -1 -5 7 -10 13 -9 13 -11 0 -20
-8 -6 -26 -8 -40 -4 -20 4 -23 3 -12 -7 6 -7 12 -22 12 -33 0 -19 1 -19 20 2
23 24 46 29 48 10 0 -7 5 -26 10 -43 l9 -30 9 40 c4 22 7 45 6 52 -2 7 8 15
22 19 31 7 56 34 33 34 -9 0 -27 -4 -40 -9 -20 -8 -30 -4 -58 19 -42 36 -57
38 -35 5z"/>
<path d="M2300 5860 c0 -5 12 -10 28 -10 21 0 24 2 12 10 -20 13 -40 13 -40 0z"/>
<path d="M1480 5825 c-70 -38 -143 -103 -167 -150 -23 -43 -21 -131 5 -180 27
-55 97 -117 172 -155 34 -17 64 -30 65 -28 2 2 -20 16 -50 31 -77 41 -130 90
-159 149 -43 86 -31 152 40 220 37 34 148 98 172 98 16 0 23 16 16 34 -9 23
-21 20 -94 -19z"/>
<path d="M2182 5848 c-19 -19 -14 -29 13 -22 19 5 25 2 25 -10 0 -9 3 -16 8
-17 72 -10 102 -8 102 6 0 8 -9 15 -20 15 -11 0 -20 6 -20 13 0 9 -3 8 -9 -2
-6 -9 -11 -10 -15 -2 -4 6 -11 9 -16 6 -4 -3 -13 2 -20 10 -15 18 -32 19 -48
3z"/>
<path d="M2400 5772 c0 -12 19 -26 26 -19 2 2 -2 10 -11 17 -9 8 -15 8 -15 2z"/>
<path d="M1639 5716 c-4 -114 23 -207 80 -283 33 -43 113 -113 130 -113 12 0
-14 147 -29 166 -31 37 -43 72 -36 107 6 30 2 40 -19 61 -14 15 -42 33 -61 41
-22 9 -34 21 -34 33 0 33 -30 22 -31 -12z"/>
<path d="M2340 5747 c0 -11 30 -67 35 -67 6 0 -16 52 -27 65 -4 5 -8 6 -8 2z"/>
<path d="M1670 5168 c0 -10 7 -18 15 -18 8 0 15 8 15 18 0 10 -7 19 -15 19 -8
0 -15 -9 -15 -19z"/>
<path d="M1790 5168 c0 -10 7 -18 15 -18 8 0 15 8 15 18 0 10 -7 19 -15 19 -8
0 -15 -9 -15 -19z"/>
<path d="M1830 5130 c0 -11 7 -20 15 -20 8 0 15 9 15 20 0 11 -7 20 -15 20 -8
0 -15 -9 -15 -20z"/>
<path d="M1750 5045 c0 -8 7 -15 15 -15 8 0 15 7 15 15 0 8 -7 15 -15 15 -8 0
-15 -7 -15 -15z"/>
<path d="M1710 5005 c0 -8 7 -15 15 -15 8 0 15 7 15 15 0 8 -7 15 -15 15 -8 0
-15 -7 -15 -15z"/>
<path d="M1710 4920 c0 -16 7 -20 35 -20 28 0 35 4 35 20 0 16 -7 20 -35 20
-28 0 -35 -4 -35 -20z"/>
<path d="M1670 4880 c0 -11 7 -20 15 -20 8 0 15 9 15 20 0 11 -7 20 -15 20 -8
0 -15 -9 -15 -20z"/>
<path d="M1810 4326 l0 -406 110 0 110 0 0 130 0 130 39 0 c79 0 197 22 254
47 222 99 221 396 -2 480 -37 13 -91 17 -278 21 l-233 4 0 -406z m393 215 c37
-14 57 -40 57 -72 0 -70 -48 -99 -160 -99 l-70 0 0 90 0 90 74 0 c41 0 86 -4
99 -9z"/>
<path d="M2895 4623 c-166 -376 -305 -692 -305 -697 0 -3 51 -6 113 -6 l112 0
29 70 28 70 163 0 163 0 25 -67 25 -68 116 -3 117 -3 -15 33 c-80 189 -257
604 -289 681 l-41 97 -96 0 -97 0 -48 -107z m170 -233 c9 -25 26 -66 36 -92
l19 -48 -85 0 -84 0 41 100 c23 55 45 97 48 93 4 -5 15 -28 25 -53z"/>
<path d="M3550 4635 l0 -95 130 0 130 0 0 -310 0 -310 115 0 115 0 0 310 0
310 120 0 c66 0 120 1 120 3 1 1 7 38 15 82 8 44 15 86 15 93 0 9 -83 12 -380
12 l-380 0 0 -95z"/>
<path d="M4480 4325 l0 -405 115 0 115 0 0 155 0 155 145 0 145 0 0 -155 0
-155 115 0 115 0 0 405 0 405 -115 0 -115 0 0 -155 0 -155 -145 0 -145 0 0
155 0 155 -115 0 -115 0 0 -405z"/>
<path d="M5440 4722 c0 -11 179 -729 191 -769 l11 -33 127 0 128 0 11 38 c6
20 39 138 73 261 41 147 65 217 69 205 4 -10 31 -128 61 -261 l54 -243 130 0
130 0 104 363 c58 199 110 381 117 405 l13 42 -108 0 -108 0 -11 -47 c-24 -99
-118 -433 -124 -438 -3 -3 -13 27 -21 67 -9 40 -33 151 -53 246 l-37 172 -138
0 -137 0 -16 -52 c-8 -29 -39 -140 -68 -245 -28 -106 -55 -190 -58 -185 -4 4
-31 114 -61 245 l-54 237 -112 0 c-62 0 -113 -4 -113 -8z"/>
<path d="M6935 4388 c-82 -188 -162 -370 -177 -405 l-27 -64 115 3 115 3 28
65 27 65 161 3 161 2 29 -70 28 -70 113 0 c61 0 112 2 112 5 0 3 -31 79 -69
168 -38 89 -114 268 -170 397 l-100 235 -98 3 -98 2 -150 -342z m320 -119 c6
-18 0 -19 -74 -19 -45 0 -81 2 -81 5 0 7 60 156 72 179 9 17 15 9 44 -64 18
-45 36 -91 39 -101z"/>
<path d="M7711 4693 c13 -21 77 -123 141 -228 l118 -190 0 -177 0 -178 115 0
115 0 0 180 0 180 126 207 c69 114 130 215 135 225 9 17 2 18 -108 18 l-118 0
-68 -125 c-38 -69 -70 -125 -72 -125 -1 0 -36 56 -76 125 l-74 125 -128 0
-129 0 23 -37z"/>
<path d="M1590 3655 l0 -105 74 0 c71 0 74 1 78 25 5 24 3 25 -43 25 -37 0
-49 4 -49 15 0 11 11 15 40 15 36 0 40 3 40 25 0 23 -4 25 -40 25 -29 0 -40 4
-40 15 0 11 12 15 45 15 41 0 45 2 45 25 0 24 -2 25 -75 25 l-75 0 0 -105z"/>
<path d="M1800 3654 l0 -107 72 5 c65 5 75 9 100 37 30 33 37 85 18 122 -17
31 -64 49 -130 49 l-60 0 0 -106z m128 44 c7 -7 12 -27 12 -45 0 -34 -21 -53
-59 -53 -19 0 -21 6 -21 55 0 54 1 55 28 55 15 0 33 -5 40 -12z"/>
<path d="M2062 3679 c3 -75 5 -83 32 -106 25 -21 37 -24 75 -20 66 7 81 30 81
128 0 77 -1 79 -25 79 -23 0 -24 -3 -27 -71 -2 -55 -7 -74 -20 -83 -13 -8 -23
-8 -35 0 -14 9 -19 28 -21 83 l-3 71 -30 0 -31 0 4 -81z"/>
<path d="M2349 3731 c-39 -39 -41 -106 -5 -148 21 -24 31 -28 80 -28 39 0 60
5 73 18 16 16 16 18 1 34 -14 13 -20 14 -32 4 -24 -20 -69 -9 -85 20 -13 24
-13 29 2 53 18 27 69 37 82 16 7 -11 45 9 45 24 0 19 -37 35 -83 36 -41 0 -53
-5 -78 -29z"/>
<path d="M2588 3672 c-55 -130 -54 -122 -24 -122 15 0 30 8 36 20 8 15 21 20
50 20 29 0 42 -5 50 -20 6 -12 21 -20 36 -20 30 0 31 -8 -23 123 -33 77 -40
87 -63 87 -22 0 -29 -11 -62 -88z m76 -8 c9 -23 8 -24 -14 -24 -11 0 -20 2
-20 4 0 12 13 36 20 36 4 0 11 -7 14 -16z"/>
<path d="M2790 3735 c0 -21 5 -25 30 -25 l30 0 0 -80 0 -80 30 0 30 0 0 80 0
80 30 0 c17 0 30 4 30 9 0 5 3 16 6 25 5 14 -6 16 -90 16 -96 0 -96 0 -96 -25z"/>
<path d="M3020 3655 l0 -105 30 0 30 0 0 105 0 105 -30 0 -30 0 0 -105z"/>
<path d="M3194 3749 c-48 -24 -67 -95 -39 -148 27 -52 120 -66 166 -25 47 42
44 135 -4 169 -24 17 -91 19 -123 4z m104 -84 c4 -32 -22 -65 -53 -65 -31 0
-47 23 -43 62 6 66 88 69 96 3z"/>
<path d="M3420 3655 c0 -105 0 -105 25 -105 22 0 24 4 27 58 l3 57 40 -57 c32
-46 46 -57 68 -58 l27 0 0 105 0 105 -30 0 c-30 0 -30 0 -30 -57 l0 -56 -41
56 c-30 43 -46 57 -65 57 -24 0 -24 0 -24 -105z"/>
<path d="M3815 3746 c-14 -10 -17 -21 -13 -47 4 -22 1 -42 -8 -54 -19 -25 -18
-38 5 -66 17 -21 28 -23 112 -25 52 -1 97 0 101 2 13 8 -4 34 -23 34 -25 0
-24 15 1 40 34 34 26 50 -25 50 -46 0 -58 -13 -33 -38 20 -20 4 -21 -21 -1
-22 18 -23 21 -7 37 19 22 21 53 4 70 -16 16 -70 15 -93 -2z m63 -38 c-6 -18
-28 -21 -28 -4 0 9 7 16 16 16 9 0 14 -5 12 -12z m8 -116 c-12 -11 -46 12 -46
30 0 21 0 21 25 -2 14 -13 23 -25 21 -28z"/>
<path d="M4190 3654 l0 -105 28 3 27 3 3 103 3 102 -31 0 -30 0 0 -106z"/>
<path d="M4320 3655 c0 -105 0 -105 24 -105 22 0 25 5 28 43 l3 42 23 -42 c28
-54 55 -57 78 -8 24 50 34 52 34 6 0 -37 2 -41 25 -41 l25 0 0 105 0 105 -25
0 c-21 0 -31 -11 -57 -65 -18 -36 -35 -65 -38 -65 -3 0 -20 29 -38 65 -26 54
-36 65 -57 65 l-25 0 0 -105z"/>
<path d="M4640 3654 c0 -104 0 -105 23 -102 18 2 23 10 25 42 l3 39 25 -41
c33 -55 55 -54 80 0 l19 43 5 -40 c4 -35 9 -40 33 -43 l27 -3 0 105 0 106 -25
0 c-21 0 -31 -11 -57 -65 -18 -36 -35 -65 -38 -65 -3 0 -20 29 -38 65 -27 53
-38 65 -58 65 -24 0 -24 0 -24 -106z"/>
<path d="M4950 3655 l0 -105 30 0 30 0 0 105 0 105 -30 0 -30 0 0 -105z"/>
<path d="M5104 3726 c-38 -38 -44 -77 -19 -127 20 -38 47 -48 129 -47 l66 1 0
59 0 58 -45 0 c-38 0 -45 -3 -45 -20 0 -12 7 -20 16 -20 27 0 9 -25 -21 -28
-48 -6 -75 57 -39 92 18 18 65 21 80 6 8 -8 18 -5 34 8 l23 19 -24 16 c-14 10
-43 17 -72 17 -42 0 -54 -5 -83 -34z"/>
<path d="M5350 3655 l0 -105 25 0 c22 0 25 4 25 35 0 43 14 45 35 5 15 -30 47
-45 82 -38 26 5 23 42 -4 46 -37 5 -47 28 -24 51 21 21 27 56 13 77 -14 22
-51 34 -101 34 l-51 0 0 -105z m89 56 c19 -12 6 -41 -19 -41 -13 0 -20 7 -20
18 0 31 14 39 39 23z"/>
<path d="M5608 3672 c-55 -129 -54 -122 -24 -122 15 0 30 8 36 20 8 15 21 20
50 20 29 0 42 -5 50 -20 12 -22 66 -29 57 -7 -2 6 -22 54 -43 104 -34 82 -42
93 -64 93 -22 0 -30 -11 -62 -88z m75 -12 c4 -15 0 -20 -14 -20 -21 0 -22 1
-13 24 8 22 21 20 27 -4z"/>
<path d="M5802 3738 c2 -18 11 -24 36 -26 l32 -3 0 -80 0 -79 30 0 30 0 0 80
0 80 29 0 c23 0 30 5 33 25 l5 25 -99 0 c-97 0 -99 0 -96 -22z"/>
<path d="M6040 3655 l0 -105 30 0 30 0 0 105 0 105 -30 0 -30 0 0 -105z"/>
<path d="M6197 3736 c-31 -29 -42 -64 -33 -110 10 -51 38 -71 103 -71 48 0 58
4 79 28 35 41 34 119 -2 152 -38 35 -110 35 -147 1z m111 -44 c27 -35 1 -92
-43 -92 -30 0 -45 19 -45 56 0 55 54 77 88 36z"/>
<path d="M6440 3655 c0 -105 0 -105 25 -105 22 0 24 4 27 58 l3 57 40 -58 c33
-47 45 -57 65 -55 25 3 25 4 28 106 l3 102 -31 0 c-30 0 -30 0 -30 -57 l0 -58
-41 58 c-30 42 -47 57 -65 57 -24 0 -24 -1 -24 -105z"/>
<path d="M6821 3734 c-12 -15 -21 -32 -21 -38 0 -23 26 -47 65 -60 22 -8 41
-19 43 -25 5 -14 -54 -15 -63 -1 -8 13 -42 13 -50 0 -3 -5 6 -22 20 -36 23
-23 32 -26 73 -21 51 6 72 25 72 68 0 31 -12 42 -62 58 -21 7 -38 17 -38 22 0
15 30 23 43 10 15 -15 57 -14 57 2 0 26 -36 47 -78 47 -32 0 -45 -6 -61 -26z"/>
<path d="M7020 3655 l0 -105 75 0 c41 0 75 4 75 9 0 5 3 16 6 25 5 13 -2 16
-45 16 -38 0 -51 4 -51 14 0 10 14 16 43 18 35 2 43 7 45 26 3 20 -1 22 -42
22 -34 0 -46 4 -46 15 0 11 12 15 45 15 41 0 45 2 45 25 0 24 -2 25 -75 25
l-75 0 0 -105z"/>
<path d="M7230 3655 l0 -105 30 0 c28 0 30 3 30 37 l0 37 34 -37 c24 -27 42
-37 63 -37 16 0 32 3 35 6 11 10 -4 44 -20 44 -8 0 -23 7 -33 16 -16 14 -15
17 8 40 17 17 22 31 18 47 -12 41 -42 57 -106 57 l-59 0 0 -105z m99 56 c19
-12 6 -41 -19 -41 -15 0 -20 7 -20 25 0 26 14 31 39 16z"/>
<path d="M7455 3738 c3 -13 16 -59 29 -103 l23 -80 40 -3 c36 -3 41 0 51 25
18 47 62 174 62 179 0 3 -12 4 -27 2 -25 -3 -31 -11 -52 -75 -13 -40 -27 -71
-31 -68 -4 2 -10 19 -14 37 -19 96 -25 108 -57 108 -25 0 -29 -3 -24 -22z"/>
<path d="M7710 3655 l0 -105 25 0 25 0 0 105 0 105 -25 0 -25 0 0 -105z"/>
<path d="M7867 3740 c-50 -40 -55 -120 -10 -162 32 -30 122 -33 150 -5 16 16
16 18 1 33 -12 12 -20 14 -36 5 -46 -24 -92 -2 -92 44 0 13 7 31 16 39 17 18
65 21 80 7 5 -6 16 -4 28 5 19 13 19 14 1 34 -25 28 -103 28 -138 0z"/>
<path d="M8070 3655 l0 -105 74 0 c71 0 74 1 78 25 5 24 3 25 -43 25 -37 0
-49 4 -49 15 0 11 12 15 45 15 41 0 45 2 45 25 0 23 -4 25 -45 25 -33 0 -45 4
-45 15 0 11 12 15 45 15 41 0 45 2 45 25 0 24 -2 25 -75 25 l-75 0 0 -105z"/>
<path d="M8300 3740 c-39 -39 -20 -86 44 -107 17 -5 32 -15 34 -21 5 -15 -33
-16 -57 0 -19 11 -51 5 -51 -10 0 -24 30 -44 72 -49 40 -5 50 -2 72 20 43 43
27 86 -37 102 -31 8 -43 23 -30 36 5 5 22 4 41 -3 44 -17 63 1 33 31 -28 28
-93 29 -121 1z"/>
</g>
</svg>
